<svg xmlns="http://www.w3.org/2000/svg" fill-rule="evenodd" stroke-linejoin="round" stroke-miterlimit="2" clip-rule="evenodd" viewBox="0 0 64 64" id="instagram">
  <path d="M50 21c0-3.863-3.136-6.999-7-6.999H21c-3.864 0-7 3.136-7 7v22c0 3.863 3.136 7 7 7h22c3.864 0 7-3.137 7-7zm-2 0v22c0 2.76-2.24 5.001-5 5.001H21c-2.76 0-5-2.24-5-5V21c0-2.76 2.24-5 5-5h22c2.76 0 5 2.24 5 5z"></path>
  <path d="M58 19c0-7.174-5.825-13-13-13H19C11.825 6 6 11.827 6 19v26c0 7.176 5.825 13 13 13h26c7.175 0 13-5.824 13-13V19zm-2 0v26c0 6.072-4.928 11-11 11H19c-6.072 0-11-4.928-11-11V19C8 12.93 12.928 8 19 8h26c6.072 0 11 4.929 11 11z"></path>
  <path d="M32 23c-4.967 0-9 4.033-9 9s4.033 9 9 9 9-4.033 9-9-4.033-9-9-9zm0 2c3.864 0 7 3.137 7 7 0 3.864-3.136 7-7 7-3.863 0-7-3.136-7-7 0-3.863 3.137-7 7-7zm10-6c-1.656 0-3 1.344-3 3s1.344 3 3 3 3-1.344 3-3-1.344-3-3-3zm0 2a1 1 0 1 1 0 2.001 1 1 0 0 1 0-2z"></path>
</svg>
